<?xml version="1.0" standalone="no"?>
<!DOCTYPE svg PUBLIC "-//W3C//DTD SVG 20010904//EN"
 "http://www.w3.org/TR/2001/REC-SVG-20010904/DTD/svg10.dtd">
<svg version="1.0" xmlns="http://www.w3.org/2000/svg"
 width="260.000000pt" height="260.000000pt" viewBox="0 0 260.000000 260.000000"
 preserveAspectRatio="xMidYMid meet">
<metadata>
Created by potrace 1.11, written by Peter Selinger 2001-2013
</metadata>
<g transform="translate(0.000000,260.000000) scale(0.100000,-0.100000)"
fill="#000000" stroke="none">
<path d="M1369 2168 c-1 -2 -2 -344 -3 -760 l-1 -758 87 0 88 0 0 204 0 205
43 34 c23 19 47 37 53 40 7 4 76 -91 174 -238 l163 -245 103 0 103 0 -136 198
c-75 108 -169 245 -209 303 l-73 106 193 229 c107 126 192 231 190 232 -1 2
-46 4 -99 4 l-97 1 -40 -49 c-22 -27 -55 -67 -73 -89 -19 -22 -93 -114 -166
-205 -72 -91 -135 -166 -140 -168 -4 -2 -6 7 -2 20 3 13 7 229 10 481 l5 457
-86 0 c-47 0 -87 -1 -87 -2z"/>
<path d="M805 1742 c-126 -8 -325 -68 -325 -97 0 -14 49 -125 55 -125 2 0 37
13 77 30 181 72 333 56 388 -42 18 -32 25 -62 28 -125 4 -76 3 -83 -14 -84
-11 -1 -50 -3 -88 -4 -167 -7 -232 -17 -315 -46 -123 -45 -191 -123 -209 -241
-4 -29 -7 -57 -7 -63 18 -215 126 -316 332 -310 119 3 175 26 251 103 38 38
64 58 67 50 2 -7 10 -40 17 -73 l13 -60 66 -3 66 -3 -2 418 c-3 463 -5 480
-67 561 -32 42 -105 86 -158 97 -57 12 -138 20 -175 17z m223 -662 c-5 -109
-32 -183 -86 -235 -43 -42 -122 -69 -195 -67 -103 2 -158 56 -163 159 -7 145
80 214 287 229 52 4 95 7 96 8 1 0 16 1 33 1 l32 1 -4 -96z"/>
</g>
</svg>
